<svg viewBox="0 0 200 200" width="24" height="24" xmlns="http://www.w3.org/2000/svg" class="A_8a-icon" role="presentation"><path d="M174.973 150.594l-29.406-29.406c5.794-9.945 9.171-21.482 9.171-33.819C154.737 50.164 124.573 20 87.368 20S20 50.164 20 87.368s30.164 67.368 67.368 67.368c12.345 0 23.874-3.377 33.827-9.171l29.406 29.406c6.703 6.703 17.667 6.703 24.371 0c6.704-6.702 6.704-17.674.001-24.377zM36.842 87.36c0-27.857 22.669-50.526 50.526-50.526s50.526 22.669 50.526 50.526s-22.669 50.526-50.526 50.526s-50.526-22.669-50.526-50.526z"></path></svg>